<?xml version="1.0" encoding="utf-8"?>
<!-- Generator: Adobe Illustrator 13.0.0, SVG Export Plug-In . SVG Version: 6.00 Build 14948)  -->
<!DOCTYPE svg PUBLIC "-//W3C//DTD SVG 1.1//EN" "http://www.w3.org/Graphics/SVG/1.1/DTD/svg11.dtd">
<svg version="1.1" id="Layer_1" xmlns="http://www.w3.org/2000/svg" xmlns:xlink="http://www.w3.org/1999/xlink" x="0px" y="0px"
	 width="27px" height="27.002px" viewBox="0 0 27 27.002" enable-background="new 0 0 27 27.002" xml:space="preserve">
<path fill="#999999" d="M0,13.503C0,6.046,6.044,0.003,13.499,0l0,0C20.957,0.003,26.998,6.046,27,13.503l0,0
	c-0.002,7.455-6.043,13.497-13.5,13.499l0,0C6.044,27,0,20.958,0,13.503L0,13.503z M3,13.503C3.011,19.301,7.701,23.991,13.499,24
	l0,0c5.797-0.009,10.491-4.701,10.5-10.497l0,0c-0.011-5.8-4.703-10.492-10.5-10.502l0,0C7.701,3.011,3.011,7.703,3,13.503L3,13.503
	z"/>
</svg>
